<svg width="501" height="501" viewBox="0 0 501 501" fill="none" xmlns="http://www.w3.org/2000/svg">
<path d="M148.517 391.951C143.184 400.951 164.184 412.618 237.85 441.951C315.85 472.951 334.185 476.951 336.518 464.618C339.518 447.618 157.517 377.618 148.517 391.951Z" fill="white"/>
<path d="M257.184 37.6163C229.184 23.6161 223.184 26.6158 174.184 78.9493C123.517 132.949 116.184 144.617 125.517 154.95C142.517 173.617 160.518 163.617 226.518 99.95C275.184 52.95 277.851 47.9496 257.184 37.6163Z" fill="white"/>
<path d="M363.851 211.284C343.851 200.951 334.518 201.285 298.851 213.285C193.184 249.285 114.85 266.617 154.183 285.951C170.183 293.951 190.517 289.284 315.517 251.284C384.518 229.951 390.518 225.284 363.851 211.284Z" fill="white"/>
</svg>
