<svg width="60" height="60" viewBox="0 0 60 60" fill="none" xmlns="http://www.w3.org/2000/svg">
<path d="M13.4164 6.00012L6 13.4165V46.5838L13.4165 54.0001H46.5834L54 46.5838V13.4165L46.5837 6.00012H13.4164ZM26.5746 43.2766H19.9365C19.9365 37.7857 15.4701 33.3193 9.97926 33.3193V26.6809C15.4701 26.6809 19.9365 22.2146 19.9365 16.7237H26.5746C26.5746 22.1714 23.9005 26.9725 19.8339 30.0001C23.9005 33.028 26.5746 37.8289 26.5746 43.2766ZM50.0001 33.3193C44.5092 33.3193 40.0428 37.7857 40.0428 43.2766H33.4044C33.4044 37.8289 36.0789 33.028 40.1454 30.0001C36.0789 26.9725 33.4044 22.1714 33.4044 16.7237H40.0428C40.0428 22.2146 44.5092 26.6809 50.0001 26.6809V33.3193Z" fill="#2EA967"/>
</svg>
