<svg width="60" height="60" viewBox="0 0 60 60" fill="none" xmlns="http://www.w3.org/2000/svg">
<path d="M43.5208 4.27783C43.5208 4.27783 66.4631 19.9677 57.6465 41.9619C48.8298 63.9562 31.6231 57.8414 38.1645 51.3474C44.7059 44.8534 30.5329 40.6347 21.5266 32.1972L43.5208 4.27783Z" fill="#FFEAC0"/>
<mask id="mask0_502_7138" style="mask-type:alpha" maskUnits="userSpaceOnUse" x="0" y="2" width="48" height="57">
<path d="M42.1933 25.8932C37.4057 32.0079 30.5325 35.089 25.1762 33.9514L6.83183 57.4625C5.5046 59.1689 3.18193 59.3585 1.47548 58.0313C-0.230971 56.704 -0.420577 54.3814 0.717057 52.6749L19.0614 29.3535C16.5965 24.5659 17.9238 17.1239 22.9009 10.8195C29.0157 3.14049 38.1641 0.296408 43.5205 4.27812C48.8769 8.25984 48.1184 18.0719 42.1933 25.8932Z" fill="#FFD56C"/>
</mask>
<g mask="url(#mask0_502_7138)">
<path d="M0 2.48326H47.2334V59.6605H0V2.48326Z" fill="#FFD56C"/>
<path d="M31.8356 1.04475L34.0444 1.33573L29.5996 35.0746L27.3908 34.7836L31.8356 1.04475Z" fill="white"/>
<path d="M35.4663 0.891113L40.3069 1.52881L35.943 34.6536L31.1024 34.0159L35.4663 0.891113Z" fill="white"/>
</g>
</svg>
