<svg width="60" height="60" viewBox="0 0 60 60" fill="none" xmlns="http://www.w3.org/2000/svg">
<path d="M42.109 25.8627C37.2836 32.0041 30.4747 35.0748 25.2106 33.9686L24.5302 34.8355L6.84356 57.3708C6.53446 57.7656 6.15056 58.0956 5.71381 58.3419C5.27707 58.5882 4.79606 58.7459 4.29828 58.8062C3.80051 58.8664 3.29575 58.8279 2.81287 58.6929C2.32999 58.5578 1.87846 58.329 1.48412 58.0193C1.08516 57.7114 0.751162 57.3275 0.501411 56.8898C0.251661 56.4521 0.0911143 55.9693 0.029045 55.4692C-0.0330243 54.9691 0.0046145 54.4616 0.139787 53.9762C0.27496 53.4907 0.504987 53.0368 0.816579 52.6408L19.0882 29.2767C16.666 24.4322 18.0011 17.0129 22.9028 10.8143C28.987 3.10892 38.1609 0.229194 43.4822 4.38705C48.8035 8.5449 48.1551 18.1573 42.109 25.8627Z" fill="#B4E1CE"/>
<path d="M57.6913 41.9412C66.3885 20.0076 43.4822 4.38705 43.4822 4.38705C48.8035 8.5449 48.1551 18.1573 42.109 25.8627C37.2836 32.0041 30.4747 35.0748 25.2106 33.9686L24.5302 34.8355C33.2974 41.5735 43.9389 45.6554 38.1609 51.3822C31.6952 57.7907 48.9942 63.8749 57.6913 41.9412Z" fill="#3BA561"/>
</svg>
