<svg width="60" height="60" viewBox="0 0 60 60" fill="none" xmlns="http://www.w3.org/2000/svg">
<path d="M29.9027 3.00057C26.3899 2.98032 22.9076 3.65219 19.6545 4.97781C16.4014 6.30343 13.4413 8.25684 10.9432 10.7265C8.445 13.1962 6.45774 16.1337 5.09485 19.3714C3.73196 22.6091 3.02013 26.0836 3 29.5964V29.9039C3.00035 35.2117 4.57071 40.4008 7.51344 44.8181C10.4562 49.2354 14.6398 52.6835 19.5377 54.7285C24.4356 56.7735 29.829 57.3239 35.039 56.3105C40.2491 55.2971 45.0429 52.7652 48.8173 49.0334C52.5917 45.3016 55.1778 40.5367 56.2503 35.3384C57.3229 30.1401 56.8338 24.7407 54.8446 19.8197C52.8555 14.8987 49.4552 10.6761 45.0717 7.6833C40.6882 4.69049 35.5174 3.06123 30.2101 3.00057H29.9027ZM47.257 19.655L41.4665 30.5871C41.4665 30.9288 41.4665 30.9288 41.8081 31.2533H45.2243C45.583 31.2533 45.5831 31.2533 45.5831 31.612V31.9536L30.2101 42.8516H29.9027L14.2735 31.9536V31.2533H18.0313C18.0745 31.2581 18.1182 31.2538 18.1595 31.2405C18.2008 31.2272 18.2389 31.2053 18.2712 31.1763C18.3034 31.1472 18.3292 31.1117 18.3467 31.072C18.3643 31.0322 18.3732 30.9893 18.3729 30.9458L12.5483 19.655V18.9717H13.2486L26.9135 27.8199C27.2551 27.8199 27.2551 28.1616 27.6138 28.5203L29.6464 32.9444C29.9881 32.9444 29.9881 33.2689 30.3297 32.9444L30.6713 32.6027L32.721 28.5203C32.721 28.1616 33.0626 28.1616 33.3872 27.8199L47.052 18.6472C47.3936 18.6472 47.3936 18.6472 47.3936 18.9717V19.655H47.257Z" fill="#F47B67"/>
</svg>
