<svg width="60" height="60" viewBox="0 0 60 60" fill="none" xmlns="http://www.w3.org/2000/svg">
<path d="M55.2315 4.00012H4.78027C4.6778 4.00012 4.57634 4.0189 4.48167 4.05538C4.387 4.09186 4.30099 4.14533 4.22853 4.21273C4.08221 4.34887 4 4.5335 4 4.72602V37.1442C4.00219 37.251 4.0286 37.3562 4.07749 37.4528C4.12639 37.5495 4.19667 37.6355 4.28373 37.7051L29.5182 55.8527C29.6566 55.9558 29.8286 56.0119 30.0059 56.0119C30.1832 56.0119 30.3552 55.9558 30.4936 55.8527L55.7103 37.7051C55.8025 37.6385 55.8774 37.5536 55.9295 37.4565C55.9817 37.3594 56.0098 37.2527 56.0118 37.1442V4.72602C56.0118 4.5335 55.9296 4.34887 55.7833 4.21273C55.6369 4.0766 55.4385 4.00012 55.2315 4.00012ZM48.1382 18.7326L42.2153 29.6542C42.1635 29.7443 42.1512 29.8496 42.1809 29.948C42.2107 30.0464 42.2802 30.1303 42.3749 30.1821H46.0989C46.1454 30.1665 46.1948 30.1597 46.2443 30.1621C46.2937 30.1644 46.3421 30.1759 46.3866 30.1959C46.4312 30.2159 46.4711 30.2439 46.5039 30.2784C46.5367 30.3128 46.5618 30.353 46.5777 30.3966C46.6128 30.4886 46.6085 30.5897 46.5655 30.6788C46.5226 30.7679 46.4444 30.8382 46.3471 30.875L30.2453 41.7141C30.1729 41.7624 30.0861 41.7884 29.997 41.7884C29.908 41.7884 29.8211 41.7624 29.7488 41.7141L13.4519 30.941C13.4028 30.9261 13.3573 30.9023 13.3182 30.8709C13.2791 30.8395 13.2471 30.8013 13.224 30.7583C13.2009 30.7153 13.1872 30.6685 13.1837 30.6206C13.1802 30.5727 13.187 30.5246 13.2036 30.4791C13.2177 30.434 13.2414 30.3921 13.2734 30.3558C13.3054 30.3196 13.345 30.2897 13.3898 30.2681C13.4346 30.2465 13.4836 30.2336 13.5339 30.2302C13.5842 30.2267 13.6347 30.2328 13.6824 30.2481H17.2291C17.3404 30.2398 17.4442 30.1927 17.5198 30.1162C17.5955 30.0398 17.6373 29.9396 17.6369 29.8357C17.6551 29.7764 17.6551 29.7135 17.6369 29.6542L11.8027 18.7326C11.7638 18.6466 11.7604 18.5502 11.7931 18.4619C11.8258 18.3736 11.8923 18.2997 11.98 18.2542C12.0487 18.213 12.1288 18.1911 12.2105 18.1911C12.2923 18.1911 12.3723 18.213 12.4411 18.2542L26.8405 27.0475C27.0906 27.2106 27.2969 27.4251 27.4434 27.6744L29.6246 31.7824C29.6554 31.8296 29.6961 31.8706 29.7443 31.903C29.7924 31.9353 29.847 31.9583 29.9049 31.9706C29.9628 31.9829 30.0228 31.9843 30.0813 31.9746C30.1397 31.965 30.1955 31.9445 30.2453 31.9144C30.3012 31.8792 30.3493 31.8344 30.3872 31.7824L32.5684 27.6744C32.7087 27.4262 32.909 27.2116 33.1536 27.0475L47.5707 18.2542C47.6527 18.1835 47.7604 18.1442 47.8722 18.1442C47.984 18.1442 48.0917 18.1835 48.1737 18.2542C48.208 18.3183 48.2259 18.3889 48.2259 18.4604C48.2259 18.532 48.208 18.6026 48.1737 18.6667L48.1382 18.7326Z" fill="#9C84EF"/>
</svg>
