<svg width="60" height="60" viewBox="0 0 60 60" fill="none" xmlns="http://www.w3.org/2000/svg">
<path d="M56.5018 29.3815L30.3025 3.18221C30.1844 3.06554 30.025 3.00012 29.859 3.00012C29.693 3.00012 29.5336 3.06554 29.4155 3.18221L3.18208 29.3815C3.06542 29.4997 3 29.659 3 29.825C3 29.991 3.06542 30.1504 3.18208 30.2685L29.3814 56.5019C29.4995 56.6186 29.6589 56.684 29.8249 56.684C29.9909 56.684 30.1502 56.6186 30.2684 56.5019L56.5018 30.3026C56.6185 30.1845 56.6839 30.0251 56.6839 29.8591C56.6839 29.6931 56.6185 29.5338 56.5018 29.4156V29.3815ZM45.1931 23.514L40.0761 33.3899C40.042 33.4805 40.0442 33.5808 40.0824 33.6698C40.1205 33.7589 40.1916 33.8297 40.2807 33.8675H43.5045C43.551 33.8716 43.5962 33.8852 43.6372 33.9075C43.6783 33.9298 43.7143 33.9603 43.7431 33.9971C43.7719 34.0338 43.7928 34.0761 43.8046 34.1213C43.8163 34.1665 43.8187 34.2136 43.8115 34.2598C43.8122 34.3063 43.8017 34.3522 43.7809 34.3938C43.7602 34.4353 43.7297 34.4713 43.6921 34.4986L30.1831 44.2551C30.1199 44.288 30.0497 44.3052 29.9784 44.3052C29.9071 44.3052 29.8369 44.288 29.7737 44.2551L16.1965 34.5156C16.1317 34.4462 16.0957 34.3548 16.0957 34.2598C16.0957 34.1648 16.1317 34.0734 16.1965 34.0039C16.256 33.9418 16.3336 33.9001 16.4182 33.8845H19.4373C19.5368 33.8845 19.6322 33.845 19.7026 33.7746C19.773 33.7043 19.8125 33.6088 19.8125 33.5093V33.3899L14.6955 23.514C14.6539 23.4255 14.6485 23.3244 14.6803 23.232C14.7122 23.1396 14.7788 23.0633 14.866 23.0193C14.9035 23.0024 14.9443 22.9936 14.9854 22.9936C15.0266 22.9936 15.0673 23.0024 15.1048 23.0193L27.2493 30.9849C27.4716 31.1051 27.6461 31.2977 27.744 31.5307L29.6031 35.2491C29.6214 35.289 29.6475 35.3248 29.6799 35.3544C29.7124 35.3839 29.7505 35.4065 29.792 35.4209C29.8335 35.4352 29.8774 35.441 29.9212 35.4379C29.965 35.4347 30.0076 35.4227 30.0466 35.4026C30.1181 35.3705 30.1778 35.3168 30.2172 35.2491L32.0082 31.5478C32.1313 31.332 32.3001 31.1457 32.5028 31.0019L44.6473 23.0193C44.6898 22.9991 44.736 22.9875 44.783 22.9851C44.8301 22.9828 44.8771 22.9897 44.9215 23.0055C44.9658 23.0214 45.0066 23.0458 45.0415 23.0775C45.0764 23.1091 45.1048 23.1473 45.1249 23.1899C45.1628 23.2337 45.189 23.2864 45.201 23.3431C45.2129 23.3998 45.2102 23.4586 45.1931 23.514Z" fill="#45DDC0"/>
</svg>
