<svg width="60" height="60" viewBox="0 0 60 60" fill="none" xmlns="http://www.w3.org/2000/svg">
<path d="M58.7737 16.7908L35.1655 32.2872C34.7602 32.5514 34.4321 32.9181 34.2144 33.3501L30.6154 40.5669C30.5632 40.6866 30.4771 40.7886 30.3678 40.8602C30.2585 40.9318 30.1307 40.9699 30 40.9699C29.8693 40.9699 29.7415 40.9318 29.6322 40.8602C29.5229 40.7886 29.4368 40.6866 29.3846 40.5669L25.7856 33.3501C25.5679 32.9181 25.2398 32.5514 24.8345 32.2872L1.22627 16.7908C1.10758 16.6498 0.937747 16.5618 0.754146 16.5461C0.570545 16.5303 0.388212 16.5882 0.247259 16.7069C0.106305 16.8256 0.0182774 16.9954 0.00254019 17.179C-0.013197 17.3626 0.0446455 17.5449 0.163343 17.6859L10.0281 36.8746C10.076 36.975 10.0997 37.0854 10.097 37.1967C10.0944 37.3079 10.0656 37.417 10.0129 37.5151C9.96022 37.6132 9.88519 37.6975 9.79387 37.7611C9.70256 37.8248 9.59753 37.8661 9.4873 37.8816H3.55726C3.41083 37.8802 3.26775 37.9254 3.14874 38.0108C3.02973 38.0961 2.94096 38.2171 2.89528 38.3563C2.84959 38.4954 2.84936 38.6455 2.89461 38.7847C2.93987 38.924 3.02826 39.0453 3.14701 39.131L29.5897 58.0773C29.7106 58.1598 29.8536 58.204 30 58.204C30.1464 58.204 30.2894 58.1598 30.4103 58.0773L56.853 39.131C56.9717 39.0453 57.0601 38.924 57.1054 38.7847C57.1506 38.6455 57.1504 38.4954 57.1047 38.3563C57.059 38.2171 56.9703 38.0961 56.8513 38.0108C56.7322 37.9254 56.5892 37.8802 56.4427 37.8816H50.5127C50.396 37.8771 50.2822 37.8438 50.1814 37.7848C50.0807 37.7257 49.9961 37.6426 49.9352 37.543C49.8743 37.4433 49.8389 37.3301 49.8323 37.2135C49.8257 37.0969 49.8481 36.9805 49.8973 36.8746L59.8367 17.6859C59.9554 17.5449 60.0132 17.3626 59.9975 17.179C59.9817 16.9954 59.8937 16.8256 59.7527 16.7069C59.6118 16.5882 59.4295 16.5303 59.2458 16.5461C59.0622 16.5618 58.8924 16.6498 58.7737 16.7908Z" fill="#FBB848"/>
<path d="M30.5223 2.58089L32.9465 7.52259C32.9896 7.60422 33.0506 7.6751 33.1248 7.72997C33.1991 7.78485 33.2847 7.82232 33.3754 7.8396L38.8392 8.62281C38.9462 8.63852 39.0466 8.68389 39.129 8.75378C39.2115 8.82367 39.2727 8.91528 39.3057 9.0182C39.3387 9.12113 39.3422 9.23125 39.3158 9.33606C39.2894 9.44087 39.2341 9.53617 39.1563 9.61115L35.2029 13.4526C35.1391 13.5187 35.091 13.5982 35.0619 13.6853C35.0329 13.7725 35.0237 13.865 35.0351 13.9561L35.9675 19.3827C35.988 19.4873 35.9782 19.5956 35.9392 19.6948C35.9002 19.794 35.8337 19.88 35.7475 19.9427C35.6613 20.0054 35.559 20.0422 35.4526 20.0487C35.3462 20.0552 35.2402 20.0311 35.147 19.9794L30.2612 17.4246C30.1818 17.3788 30.0918 17.3547 30.0001 17.3547C29.9085 17.3547 29.8184 17.3788 29.7391 17.4246L24.8533 19.9794C24.7601 20.0311 24.6541 20.0552 24.5477 20.0487C24.4413 20.0422 24.339 20.0054 24.2527 19.9427C24.1665 19.88 24.1 19.794 24.0611 19.6948C24.0221 19.5956 24.0123 19.4873 24.0328 19.3827L24.9652 13.9561C24.9766 13.865 24.9674 13.7725 24.9383 13.6853C24.9093 13.5982 24.8611 13.5187 24.7974 13.4526L20.844 9.61115C20.7661 9.53617 20.7109 9.44087 20.6845 9.33606C20.658 9.23125 20.6615 9.12113 20.6945 9.0182C20.7276 8.91528 20.7888 8.82367 20.8712 8.75378C20.9537 8.68389 21.0541 8.63852 21.161 8.62281L26.6249 7.85825C26.7156 7.84097 26.8012 7.8035 26.8754 7.74862C26.9497 7.69375 27.0106 7.62287 27.0538 7.54124L29.478 2.59954C29.5231 2.49992 29.5956 2.41515 29.687 2.35507C29.7783 2.29498 29.8849 2.26205 29.9942 2.2601C30.1036 2.25815 30.2112 2.28725 30.3047 2.34404C30.3982 2.40082 30.4736 2.48295 30.5223 2.58089Z" fill="#FBB848"/>
</svg>
