<svg width="61" height="60" viewBox="0 0 61 60" fill="none" xmlns="http://www.w3.org/2000/svg">
<g clip-path="url(#clip0_502_7169)">
<path fill-rule="evenodd" clip-rule="evenodd" d="M5.94578 22.2163C5.94578 21.076 4.97651 20.1259 3.8132 20.1259H2.64989C1.48658 20.1259 0.516846 21.076 0.516846 22.2163C0.516846 23.3566 1.48658 24.3067 2.64989 24.3067H3.8132C4.97651 24.3067 5.94578 23.3566 5.94578 22.2163Z" fill="#4F5D7F"/>
<path fill-rule="evenodd" clip-rule="evenodd" d="M58.489 21.6469C54.999 14.2348 47.6315 9.86369 39.876 9.48328H17.9671C16.0281 9.48328 14.6708 11.004 14.6708 12.7145C14.6708 14.6147 16.2222 15.9453 17.9671 15.9453H23.5896C24.753 15.9453 25.7222 16.8954 25.7222 18.0357C25.7222 19.1761 24.753 20.1266 23.5896 20.1266H9.82396C8.66065 20.1266 7.69092 21.0768 7.69092 22.2171C7.69092 23.3574 8.66065 24.3075 9.82396 24.3075H19.7121C20.8754 24.3075 21.8447 25.2581 21.8447 26.3984C21.8447 27.5388 20.8754 28.4889 19.7121 28.4889H13.5075C12.3442 28.4889 11.3749 29.439 11.3749 30.5793C11.3749 31.7197 12.3442 32.6702 13.5075 32.6702H17.7731C17.9671 34.9509 18.5488 37.2315 19.5181 39.322C24.3653 49.7751 37.1618 54.3364 47.8251 49.5849C58.8766 44.6437 63.5298 32.1001 58.489 21.6469Z" fill="#4F5D7F"/>
<path fill-rule="evenodd" clip-rule="evenodd" d="M33.9854 19.5497C40.1161 16.7901 47.3681 19.4252 50.1833 25.4347C52.9986 31.4442 50.3108 38.553 44.1797 41.3126C38.0491 44.0722 30.797 41.4371 27.9818 35.4276C25.1666 29.4181 27.8548 22.3093 33.9854 19.5497Z" fill="#ECEFF8"/>
<path fill-rule="evenodd" clip-rule="evenodd" d="M43.7531 23.5472L47.6306 30.0092C47.8247 30.3892 47.8247 30.5794 47.6306 30.9594L43.7531 37.4214C43.559 37.8013 43.1714 37.8013 42.9774 37.8013H35.4159C35.0282 37.8013 34.8342 37.6111 34.6406 37.4214L30.7626 30.9594C30.569 30.5794 30.569 30.3892 30.7626 30.0092L34.6406 23.5472C34.8342 23.1673 35.2223 23.1673 35.4159 23.1673H42.9774C43.3655 22.9771 43.559 23.1673 43.7531 23.5472Z" fill="#B7C2CE"/>
</g>
<defs>
<clipPath id="clip0_502_7169">
<rect width="60" height="60" fill="white" transform="translate(0.516846)"/>
</clipPath>
</defs>
</svg>
