<svg width="60" height="60" viewBox="0 0 60 60" fill="none" xmlns="http://www.w3.org/2000/svg">
<path d="M44.3685 21.1206L36.7119 26.0025C35.6182 26.545 35.0713 26.545 33.9774 26.0025C33.4305 25.4601 32.3368 24.9176 31.7899 24.3752C29.6023 23.8328 27.9617 24.3752 26.3209 25.4601L23.5864 27.0874L9.91406 36.309C6.6327 37.9363 2.80442 37.3939 1.16373 34.1391C-1.02385 31.4269 0.0699432 27.6298 2.80442 25.4601L19.2112 14.6112C23.5864 11.899 29.0554 10.8141 33.9774 11.899C38.3525 12.9839 41.634 15.1537 44.3685 18.4083C45.4623 19.4933 44.9154 20.5781 44.3685 21.1206Z" fill="#5865F2"/>
<path d="M60 30.6423C60 32.7992 58.908 34.9562 57.2698 36.0347L40.3433 46.8191C37.0671 48.9759 33.7909 50.0544 29.9687 50.0544C28.3307 50.0544 27.2387 50.0544 25.6005 49.5151C21.2325 48.4368 17.9563 46.2798 15.2262 43.0445C14.6802 41.966 15.2262 40.8875 15.7722 40.3485L23.4165 35.4954C23.9625 34.9562 25.0545 34.9562 25.6005 35.4954C26.6927 36.0347 27.7847 36.5739 28.3307 37.113C30.5149 37.113 32.1529 37.113 33.7909 36.0347L37.6131 33.8777L48.5334 26.3285L50.1716 25.25C52.9016 23.6325 57.2698 24.1717 58.908 26.8678C60 28.4855 60 29.5638 60 30.6423Z" fill="#5865F2"/>
</svg>
