<svg width="61" height="60" viewBox="0 0 61 60" fill="none" xmlns="http://www.w3.org/2000/svg">
<g clip-path="url(#clip0_502_7157)">
<path d="M41.1074 40.9053H37.9203C36.0812 40.8801 34.3271 40.1266 33.0427 38.8101C31.7583 37.4935 31.0485 35.7213 31.0689 33.8821V30.5995C31.0638 30.2361 31.1304 29.8753 31.2648 29.5376C31.3993 29.1999 31.5989 28.892 31.8523 28.6315C32.1057 28.371 32.408 28.163 32.7419 28.0193C33.0757 27.8756 33.4346 27.7991 33.798 27.7941H48.8367V23.8817H22.1181C19.6944 29.3399 17.2134 35.0081 16.3927 37.241C15.8826 38.5335 14.9977 39.6439 13.8516 40.4295C12.7055 41.2151 11.3506 41.64 9.96118 41.6496V43.997C12.0874 46.0661 14.9336 47.2293 17.9004 47.2414H41.909C43.7448 47.2364 45.504 46.5049 46.8021 45.2067C48.1002 43.9086 48.8317 42.1495 48.8367 40.3136V39.8174C47.7606 40.5272 46.4998 40.9055 45.2106 40.9053H41.1074ZM25.019 35.5616C24.5478 35.5613 24.0873 35.4204 23.6967 35.1568C23.306 34.8932 23.003 34.519 22.8263 34.0822C22.6497 33.6453 22.6075 33.1656 22.7051 32.7046C22.8028 32.2436 23.0359 31.8222 23.3745 31.4945C23.7132 31.1668 24.1419 30.9476 24.6059 30.8651C25.0699 30.7826 25.5479 30.8405 25.9788 31.0314C26.4097 31.2222 26.7737 31.5374 27.0243 31.9365C27.275 32.3356 27.4007 32.8004 27.3855 33.2714C27.3657 33.8857 27.1076 34.4682 26.666 34.8956C26.2243 35.3231 25.6336 35.5619 25.019 35.5616Z" fill="#AABFF2"/>
<path d="M25.0191 30.8281C24.3915 30.8281 23.7895 31.0775 23.3457 31.5213C22.9019 31.9651 22.6526 32.567 22.6526 33.1946C22.6526 33.8223 22.9019 34.4242 23.3457 34.868C23.7895 35.3118 24.3915 35.5611 25.0191 35.5611C25.6467 35.5611 26.2487 35.3118 26.6925 34.868C27.1363 34.4242 27.3856 33.8223 27.3856 33.1946C27.3856 32.567 27.1363 31.9651 26.6925 31.5213C26.2487 31.0775 25.6467 30.8281 25.0191 30.8281Z" fill="black"/>
<path d="M49.3138 27.7939H33.7979C33.4345 27.7989 33.0756 27.8754 32.7418 28.0191C32.4079 28.1628 32.1057 28.3709 31.8522 28.6314C31.5988 28.8919 31.3992 29.1998 31.2648 29.5375C31.1303 29.8751 31.0637 30.236 31.0688 30.5994V33.882C31.0484 35.7211 31.7582 37.4933 33.0426 38.8099C34.327 40.1265 36.0811 40.88 37.9202 40.9051H45.2106C46.4997 40.9053 47.7605 40.5271 48.8366 39.8173C48.9043 39.7863 48.9683 39.7479 49.0275 39.7028C49.9547 39.0611 50.7143 38.2062 51.2424 37.2098C51.7704 36.2135 52.0515 35.105 52.062 33.9774V30.5994C52.0671 29.8637 51.781 29.1558 51.2661 28.6302C50.7513 28.1046 50.0494 27.804 49.3138 27.7939ZM42.5196 37.8516H39.447C39.2829 37.8727 39.1162 37.8586 38.958 37.8103C38.7997 37.7619 38.6537 37.6804 38.5294 37.5712C38.4052 37.4619 38.3057 37.3274 38.2375 37.1767C38.1693 37.0259 38.1341 36.8624 38.1341 36.697C38.1341 36.5315 38.1693 36.368 38.2375 36.2172C38.3057 36.0665 38.4052 35.932 38.5294 35.8228C38.6537 35.7135 38.7997 35.632 38.958 35.5836C39.1162 35.5353 39.2829 35.5212 39.447 35.5423H42.5196C42.6837 35.5212 42.8504 35.5353 43.0086 35.5836C43.1668 35.632 43.3129 35.7135 43.4372 35.8228C43.5614 35.932 43.6609 36.0665 43.7291 36.2172C43.7973 36.368 43.8325 36.5315 43.8325 36.697C43.8325 36.8624 43.7973 37.0259 43.7291 37.1767C43.6609 37.3274 43.5614 37.4619 43.4372 37.5712C43.3129 37.6804 43.1668 37.7619 43.0086 37.8103C42.8504 37.8586 42.6837 37.8727 42.5196 37.8516ZM47.9588 37.8516H46.7182C46.5542 37.8727 46.3875 37.8586 46.2292 37.8103C46.071 37.7619 45.9249 37.6804 45.8007 37.5712C45.6765 37.4619 45.5769 37.3274 45.5088 37.1767C45.4406 37.0259 45.4053 36.8624 45.4053 36.697C45.4053 36.5315 45.4406 36.368 45.5088 36.2172C45.5769 36.0665 45.6765 35.932 45.8007 35.8228C45.9249 35.7135 46.071 35.632 46.2292 35.5836C46.3875 35.5353 46.5542 35.5212 46.7182 35.5423H47.8824C48.1631 35.5785 48.421 35.7157 48.6079 35.9282C48.7947 36.1407 48.8978 36.414 48.8978 36.697C48.8978 36.98 48.7947 37.2533 48.6079 37.4658C48.421 37.6783 48.1631 37.8154 47.8824 37.8516H47.9588Z" fill="#CBDAF7"/>
<path d="M42.5193 35.5426H39.4467C39.2826 35.5215 39.1159 35.5356 38.9577 35.5839C38.7995 35.6323 38.6534 35.7138 38.5292 35.823C38.4049 35.9323 38.3054 36.0668 38.2372 36.2175C38.1691 36.3683 38.1338 36.5318 38.1338 36.6972C38.1338 36.8627 38.1691 37.0262 38.2372 37.177C38.3054 37.3277 38.4049 37.4622 38.5292 37.5715C38.6534 37.6807 38.7995 37.7622 38.9577 37.8106C39.1159 37.8589 39.2826 37.873 39.4467 37.8519H42.5193C42.6834 37.873 42.8501 37.8589 43.0084 37.8106C43.1666 37.7622 43.3127 37.6807 43.4369 37.5715C43.5611 37.4622 43.6607 37.3277 43.7288 37.177C43.797 37.0262 43.8323 36.8627 43.8323 36.6972C43.8323 36.5318 43.797 36.3683 43.7288 36.2175C43.6607 36.0668 43.5611 35.9323 43.4369 35.823C43.3127 35.7138 43.1666 35.6323 43.0084 35.5839C42.8501 35.5356 42.6834 35.5215 42.5193 35.5426ZM47.8821 35.5426H46.718C46.5539 35.5215 46.3872 35.5356 46.229 35.5839C46.0708 35.6323 45.9247 35.7138 45.8004 35.823C45.6762 35.9323 45.5767 36.0668 45.5085 36.2175C45.4403 36.3683 45.4051 36.5318 45.4051 36.6972C45.4051 36.8627 45.4403 37.0262 45.5085 37.177C45.5767 37.3277 45.6762 37.4622 45.8004 37.5715C45.9247 37.6807 46.0708 37.7622 46.229 37.8106C46.3872 37.8589 46.5539 37.873 46.718 37.8519H47.8821C48.1628 37.8157 48.4207 37.6786 48.6076 37.4661C48.7945 37.2535 48.8976 36.9802 48.8976 36.6972C48.8976 36.4143 48.7945 36.141 48.6076 35.9284C48.4207 35.7159 48.1628 35.5788 47.8821 35.5426Z" fill="#AABFF2"/>
<path d="M4.7887 39.703C4.49889 39.5692 4.21836 39.4162 3.94897 39.245V50.276L6.9071 52.3562L9.86523 50.276V41.5924C7.99121 41.65 6.16907 40.9718 4.7887 39.703Z" fill="#EF8843"/>
<path d="M14.4467 35.9623C14.0839 36.8635 13.5414 37.6814 12.8523 38.3663C12.1631 39.0511 11.3418 39.5884 10.4383 39.9455C9.5348 40.3026 8.56804 40.4721 7.59694 40.4435C6.62584 40.4149 5.67072 40.1889 4.78979 39.7792C6.16716 41.0549 7.98965 41.7401 9.86633 41.6877C11.2558 41.6781 12.6106 41.2532 13.7567 40.4676C14.9028 39.682 15.7878 38.5716 16.2979 37.2791C17.1567 35.1034 19.6377 29.4353 22.0233 23.9198H19.6186C19.6186 23.9198 16.2979 31.2483 14.4467 35.9623Z" fill="#D0D9EA"/>
<path d="M28.1301 10.3699L29.7523 10.5035L28.1301 10.3699ZM22.1375 10.5798C23.322 10.4405 24.5136 10.3704 25.7063 10.3699C24.5136 10.3704 23.322 10.4405 22.1375 10.5798ZM42.1955 18.5763C44.4938 18.6256 46.7846 18.8553 49.0469 19.2633C47.5392 17.4885 41.7566 11.6295 29.7523 10.5798C38.4358 12.66 41.642 17.603 42.1955 18.5763ZM14.4463 35.9625C16.2976 31.2485 19.6183 23.8819 19.6183 23.8819C19.6183 23.8819 25.4964 19.4351 37.577 18.6717C33.3784 12.9463 26.4506 11.0378 22.1566 10.5798C7.42316 12.1638 0.533582 23.3475 0.533582 32.2791C0.44438 33.6375 0.712875 34.9956 1.31229 36.2179C1.9117 37.4401 2.82108 38.4839 3.94974 39.245C4.83326 39.8074 5.82889 40.1701 6.86711 40.3078C7.90532 40.4455 8.96108 40.3549 9.96065 40.0423C10.9602 39.7297 11.8795 39.2027 12.6543 38.498C13.429 37.7933 14.0406 36.928 14.4463 35.9625ZM2.0031 30.5424C2.07243 29.1182 2.69633 27.7777 3.74134 26.8076C4.78635 25.8375 6.1695 25.3148 7.59492 25.3514C8.98841 25.6583 10.2055 26.5006 10.9837 27.6965C11.762 28.8925 12.0391 30.3464 11.7554 31.7448C11.6959 33.1555 11.0882 34.4873 10.0617 35.4568C9.03516 36.4263 7.67082 36.9569 6.25899 36.9358C5.55908 36.7968 4.89352 36.5209 4.30048 36.124C3.70745 35.7271 3.19863 35.217 2.80321 34.623C2.40779 34.029 2.13356 33.3627 1.99626 32.6625C1.85896 31.9622 1.86128 31.2418 2.0031 30.5424Z" fill="#EBEFF7"/>
<path d="M37.5391 18.6716C38.417 18.6716 39.3139 18.6716 40.2491 18.5571H42.1576C41.6041 17.5838 38.3406 12.6408 29.7143 10.5606L28.1303 10.3698H25.7065C24.5139 10.3703 23.3222 10.4404 22.1377 10.5797C26.4127 11.095 33.3404 12.8508 37.5391 18.6716Z" fill="#FC964B"/>
<path d="M40.2489 18.5568C39.3137 18.5568 38.3404 18.5568 37.5389 18.6713C25.4582 19.4347 19.6183 23.8814 19.6183 23.8814H60.5169C57.1322 21.4338 53.2017 19.8485 49.066 19.2629C46.8037 18.8548 44.5129 18.6251 42.2146 18.5758L40.2489 18.5568ZM6.25903 36.9353C7.67085 36.9565 9.03519 36.4258 10.0617 35.4563C11.0883 34.4868 11.6959 33.155 11.7554 31.7443C12.0392 30.3459 11.762 28.892 10.9838 27.6961C10.2055 26.5001 8.98844 25.6579 7.59496 25.3509C6.16954 25.3143 4.78639 25.837 3.74138 26.8071C2.69637 27.7772 2.07247 29.1178 2.00314 30.542C1.86132 31.2413 1.85899 31.9618 1.9963 32.662C2.1336 33.3623 2.40783 34.0285 2.80325 34.6226C3.19866 35.2166 3.70749 35.7267 4.30052 36.1235C4.89355 36.5204 5.55912 36.7963 6.25903 36.9353ZM2.90012 30.7519C2.9221 30.2738 3.03849 29.8049 3.24258 29.372C3.44667 28.9392 3.73442 28.551 4.08924 28.2299C4.44407 27.9087 4.85895 27.661 5.30996 27.501C5.76097 27.341 6.2392 27.2719 6.71706 27.2976C7.6259 27.5245 8.41166 28.0943 8.90973 28.8876C9.40779 29.681 9.57952 30.6363 9.38892 31.5534C9.3443 32.5001 8.92888 33.3912 8.23247 34.0341C7.53607 34.6769 6.61464 35.0198 5.6674 34.9887C4.74242 34.787 3.93383 34.2296 3.41612 33.437C2.8984 32.6444 2.71307 31.68 2.90012 30.7519Z" fill="#647096"/>
<path d="M5.66774 34.9891C6.61497 35.0203 7.53641 34.6774 8.23281 34.0345C8.92922 33.3917 9.34464 32.5006 9.38926 31.5539C9.57675 30.6235 9.39197 29.6566 8.87458 28.8609C8.3572 28.0652 7.54845 27.5041 6.62198 27.298C5.67293 27.272 4.75153 27.6192 4.05569 28.2651C3.35985 28.9109 2.94507 29.804 2.90046 30.7523C2.71341 31.6804 2.89874 32.6448 3.41645 33.4374C3.93417 34.2301 4.74276 34.7874 5.66774 34.9891Z" fill="#FC964B"/>
</g>
<defs>
<clipPath id="clip0_502_7157">
<rect width="60" height="60" fill="white" transform="translate(0.516846)"/>
</clipPath>
</defs>
</svg>
