<svg width="60" height="60" viewBox="0 0 60 60" fill="none" xmlns="http://www.w3.org/2000/svg">
<path d="M11.1725 12.5993C11.1725 12.5993 11.8668 11.6056 12.1548 11.1654C12.4428 10.7252 11.4093 9.68515 11.0083 9.35564C10.6073 9.02613 9.97482 9.19088 9.97482 9.19088C4.92858 11.3301 2.40411 15.7193 2.05962 16.5972C1.71513 17.475 2.93699 18.4327 3.83859 18.9012C4.25305 19.1174 4.91243 18.6386 5.31882 18.2834L5.45608 18.1495L5.66869 17.9436L5.67138 17.941L19.3998 31.0211L24.7233 25.9291L11.1536 12.6173L11.1725 12.5993Z" fill="#5266FF"/>
<path d="M43.6047 26.3972L44.3286 25.7382L50.8336 31.9011C50.8793 31.9397 50.9278 31.9552 50.9708 31.9552C51.0946 31.9552 51.1969 31.8471 51.1969 31.8471C51.1969 31.8471 58.3989 25.0123 58.4231 24.9891C58.6357 24.7883 58.4231 24.6776 58.4231 24.6776L52.8682 19.3282L52.8602 19.3359L52.0985 18.6228L52.5237 18.2315L53.4334 18.3319L53.2612 17.1786L53.4899 16.9572L53.1481 15.2942C51.9613 13.6853 48.7101 11.1084 48.7101 11.1084L47.0092 10.8149L46.837 11.0337L45.5559 10.851L45.6797 11.8961L45.7604 11.9734L45.381 12.3389L43.2817 10.3747C43.2817 10.3747 31.1008 4.04705 30.4522 3.75358C30.0861 3.5914 29.817 3.48328 29.5586 3.48328C29.3595 3.48328 29.1657 3.54763 28.9423 3.69952C28.4256 4.04705 28.7297 4.74726 28.7297 4.74726L36.3031 18.1337L37.8183 19.5702L37.1697 20.1906L35.9586 20.031L36.1443 21.1791L35.7944 21.5138L35.7325 21.4546C35.676 21.4005 35.598 21.3722 35.5226 21.3722C35.4473 21.3722 35.3719 21.4005 35.3127 21.4546C35.197 21.5653 35.197 21.7455 35.3127 21.8562L35.3746 21.9154L35.2077 22.0775L35.1647 22.0338C35.1055 21.9797 35.0301 21.9514 34.9547 21.9514C34.8767 21.9514 34.8013 21.9797 34.7448 22.0338C34.6291 22.1445 34.6291 22.3247 34.7448 22.4354L34.7906 22.4791L31.604 25.5426L31.5314 25.4731C31.4722 25.419 31.3968 25.3907 31.3215 25.3907C31.2461 25.3907 31.1707 25.419 31.1115 25.4731C30.9958 25.5838 30.9958 25.764 31.1115 25.8747L31.1869 25.9442L31.0173 26.1063L30.9608 26.0549C30.9043 25.9982 30.8262 25.9699 30.7536 25.9699C30.6755 25.9699 30.6002 25.9982 30.541 26.0549C30.4279 26.1656 30.4279 26.3432 30.541 26.4539L30.5975 26.5079L30.183 26.9095L30.1265 27.4192L30.3445 27.6329L30.3391 27.6355L30.0754 27.8929L12.8805 44.3376L12.6571 44.16L11.9439 44.2578L11.5402 44.6491L11.5133 44.6234C11.4541 44.5668 11.3787 44.5384 11.3034 44.5384C11.228 44.5384 11.1499 44.5668 11.0934 44.6234C10.9777 44.7341 10.9777 44.9117 11.0934 45.0224L11.1257 45.0533L10.9589 45.2181L10.9427 45.2026C10.8862 45.146 10.8081 45.1177 10.7328 45.1177C10.6574 45.1177 10.5821 45.146 10.5229 45.2026C10.4098 45.3133 10.4098 45.4909 10.5229 45.6016L10.5417 45.6222L7.39554 48.6831L7.33095 48.6213C7.27174 48.5647 7.19907 48.5389 7.12103 48.5389C7.04567 48.5389 6.97031 48.5647 6.9111 48.6213C6.79537 48.732 6.79537 48.9122 6.9111 49.0229L6.98108 49.0872L6.81421 49.2494L6.76308 49.2005C6.70387 49.1465 6.62851 49.1181 6.55046 49.1181C6.4778 49.1181 6.39975 49.1465 6.34323 49.2005C6.2275 49.3112 6.2275 49.4914 6.34323 49.6021L6.39706 49.6562L6.16291 49.8853L4.94374 49.6768L5.03525 50.9794L4.65039 51.3552L4.98411 53.1109C4.98411 53.1109 5.49546 54.64 6.54777 55.6543C7.56779 56.6377 9.12337 57.1088 9.19066 57.1577L10.9481 57.4512L11.3814 57.0445L12.5925 57.2324L12.3933 56.0868L12.762 55.7419L12.9316 55.904C12.9881 55.9581 13.0635 55.9864 13.1388 55.9864C13.2142 55.9864 13.2922 55.9581 13.3488 55.904C13.4645 55.7908 13.4645 55.6131 13.3488 55.5024L13.1819 55.3428L13.3541 55.1832L13.4995 55.3222C13.556 55.3789 13.634 55.4072 13.7094 55.4072C13.7848 55.4072 13.8601 55.3789 13.9193 55.3222C14.035 55.2115 14.035 55.0339 13.9193 54.9232L13.7767 54.7842L16.9713 51.7697L17.1112 51.9035C17.1678 51.9602 17.2458 51.9859 17.3212 51.9859C17.3965 51.9859 17.4719 51.9602 17.5311 51.9035C17.6441 51.7929 17.6441 51.6127 17.5311 51.502L17.3938 51.3732L17.5634 51.2111L17.6818 51.3243C17.7383 51.3784 17.8137 51.4067 17.889 51.4067C17.9671 51.4067 18.0424 51.3784 18.099 51.3243C18.2147 51.2136 18.2147 51.0334 18.099 50.9227L17.9832 50.812L18.3412 50.4774L18.4704 49.7437L18.2793 49.5609L18.282 49.5583L18.6291 49.2288L35.7083 32.8871L35.7002 32.8716L36.034 33.2012L36.5695 33.1445L37.0513 32.6811L37.1293 32.7558C37.1885 32.8099 37.2639 32.8382 37.3393 32.8382C37.4146 32.8382 37.4927 32.8099 37.5492 32.7558C37.6649 32.6451 37.6649 32.4649 37.5492 32.3542L37.4711 32.2796L37.6407 32.1199L37.6999 32.1766C37.7564 32.2306 37.8318 32.259 37.9098 32.259C37.9852 32.259 38.0605 32.2306 38.1171 32.1766C38.2328 32.0659 38.2328 31.8857 38.1171 31.775L38.0578 31.7158L41.2498 28.6575L41.3332 28.7373C41.3897 28.7914 41.4651 28.8197 41.5404 28.8197C41.6185 28.8197 41.6938 28.7914 41.7503 28.7373C41.8661 28.6266 41.8661 28.4464 41.7503 28.3357L41.6669 28.2559L41.8365 28.0937L41.9011 28.1581C41.9603 28.2121 42.0356 28.2405 42.111 28.2405C42.1863 28.2405 42.2617 28.2121 42.3209 28.1581C42.4366 28.0448 42.4366 27.8672 42.3209 27.7565L42.2563 27.6921L42.6116 27.3523L43.7985 27.5299L43.6047 26.3972Z" fill="#5266FF"/>
<path d="M45.9767 44.8678L38.406 39.3794L37.0576 38.051L31.8337 43.0477L33.1471 44.2474L38.0803 51.3242L44.7333 58.2928L52.4009 51.4503L45.9767 44.8678Z" fill="#5266FF"/>
</svg>
