<svg width="61" height="60" viewBox="0 0 61 60" fill="none" xmlns="http://www.w3.org/2000/svg">
<path d="M55.1593 28.8135L44.269 10.01L43.3784 8.48328H18.1628L17.2723 10.01L6.40741 28.8135L5.51685 30.3402L6.40741 31.8669L17.2723 50.6705L18.1628 52.1971H43.4039L44.2945 50.6705L55.1848 31.8669L56.0753 30.3402L55.1593 28.8135ZM21.9032 26.1927L17.7557 30.3402L21.9032 34.4877V41.4341L10.8093 30.3402L21.9286 19.2209V26.1927H21.9032ZM29.8419 43.8259L24.6512 42.2229L32.539 16.8291L37.7297 18.4576L29.8419 43.8259ZM39.6635 41.4595V34.5131L43.811 30.3402L39.6635 26.1927V19.2209L50.7574 30.3402L39.6635 41.4595Z" fill="#3E70DD"/>
</svg>
