<svg width="1440" height="48" viewBox="0 0 1440 48" fill="none" xmlns="http://www.w3.org/2000/svg">
<mask id="path-1-inside-1_154_1182" fill="white">
<path d="M0 5C0 2.23858 2.23858 0 5 0H1435C1437.76 0 1440 2.23858 1440 5V48H0V5Z"/>
</mask>
<path d="M0 5C0 2.23858 2.23858 0 5 0H1435C1437.76 0 1440 2.23858 1440 5V48H0V5Z" fill="#1E1E24"/>
<path d="M0 0H1440H0ZM1440 49H0V47H1440V49ZM0 48V0V48ZM1440 0V48V0Z" fill="white" fill-opacity="0.07" mask="url(#path-1-inside-1_154_1182)"/>
<path fill-rule="evenodd" clip-rule="evenodd" d="M130 18.1H119.883V29.9H130C130.497 29.9 130.9 29.4971 130.9 29V19C130.9 18.5029 130.497 18.1 130 18.1ZM114 18.1H118.783V29.9H114C113.503 29.9 113.1 29.4971 113.1 29V19C113.1 18.5029 113.503 18.1 114 18.1ZM114 17C112.895 17 112 17.8954 112 19V29C112 30.1046 112.895 31 114 31H130C131.105 31 132 30.1046 132 29V19C132 17.8954 131.105 17 130 17H114ZM115 19.95C114.696 19.95 114.45 20.1962 114.45 20.5C114.45 20.8038 114.696 21.05 115 21.05H117C117.304 21.05 117.55 20.8038 117.55 20.5C117.55 20.1962 117.304 19.95 117 19.95H115ZM114.45 22.8333C114.45 22.5296 114.696 22.2833 115 22.2833H117C117.304 22.2833 117.55 22.5296 117.55 22.8333C117.55 23.1371 117.304 23.3833 117 23.3833H115C114.696 23.3833 114.45 23.1371 114.45 22.8333ZM115 24.6167C114.696 24.6167 114.45 24.8629 114.45 25.1667C114.45 25.4704 114.696 25.7167 115 25.7167H117C117.304 25.7167 117.55 25.4704 117.55 25.1667C117.55 24.8629 117.304 24.6167 117 24.6167H115Z" fill="#EAEAEA"/>
<path d="M402.5 25.3545C402.5 28.2455 404.033 29.3069 408.476 31.8416C408.679 31.9525 408.875 32 409 32C409.125 32 409.329 31.9525 409.524 31.8416C413.975 29.3149 415.5 28.2455 415.5 25.3545V19.295C415.5 18.4634 415.148 18.202 414.483 17.9168C413.56 17.5287 410.58 16.4436 409.657 16.1188C409.446 16.0475 409.219 16 409 16C408.781 16 408.554 16.0634 408.351 16.1188C407.428 16.3881 404.44 17.5366 403.517 17.9168C402.86 18.1941 402.5 18.4634 402.5 19.295V25.3545ZM409.164 30.5347V17.299C409.203 17.3069 409.25 17.3228 409.313 17.3465C410.494 17.8218 412.786 18.6614 413.998 19.0812C414.209 19.1604 414.256 19.2713 414.256 19.5406V25.0614C414.256 27.5089 413.099 28.1505 409.485 30.3762C409.368 30.4554 409.258 30.5109 409.164 30.5347Z" fill="#EAEAEA"/>
<path d="M171.694 17.0972C171.939 17.3413 171.961 17.7232 171.761 17.9924L171.694 18.0695L165.764 24L171.694 29.9305C171.939 30.1746 171.961 30.5565 171.761 30.8257L171.694 30.9028C171.45 31.1469 171.068 31.1691 170.799 30.9694L170.722 30.9028L164.306 24.4861C164.061 24.2421 164.039 23.8601 164.239 23.591L164.306 23.5139L170.722 17.0972C170.991 16.8287 171.426 16.8287 171.694 17.0972Z" fill="#EAEAEA"/>
<path d="M196.306 30.9028C196.061 30.6587 196.039 30.2768 196.239 30.0076L196.306 29.9305L202.236 24L196.306 18.0695C196.061 17.8254 196.039 17.4435 196.239 17.1743L196.306 17.0972C196.55 16.8531 196.932 16.8309 197.201 17.0306L197.278 17.0972L203.694 23.5139C203.939 23.7579 203.961 24.1399 203.761 24.409L203.694 24.4861L197.278 30.9028C197.009 31.1713 196.574 31.1713 196.306 30.9028Z" fill="#EAEAEA" fill-opacity="0.5"/>
<path fill-rule="evenodd" clip-rule="evenodd" d="M130 18.1H119.883V29.9H130C130.497 29.9 130.9 29.4971 130.9 29V19C130.9 18.5029 130.497 18.1 130 18.1ZM114 18.1H118.783V29.9H114C113.503 29.9 113.1 29.4971 113.1 29V19C113.1 18.5029 113.503 18.1 114 18.1ZM114 17C112.895 17 112 17.8954 112 19V29C112 30.1046 112.895 31 114 31H130C131.105 31 132 30.1046 132 29V19C132 17.8954 131.105 17 130 17H114ZM115 19.95C114.696 19.95 114.45 20.1962 114.45 20.5C114.45 20.8038 114.696 21.05 115 21.05H117C117.304 21.05 117.55 20.8038 117.55 20.5C117.55 20.1962 117.304 19.95 117 19.95H115ZM114.45 22.8333C114.45 22.5296 114.696 22.2833 115 22.2833H117C117.304 22.2833 117.55 22.5296 117.55 22.8333C117.55 23.1371 117.304 23.3833 117 23.3833H115C114.696 23.3833 114.45 23.1371 114.45 22.8333ZM115 24.6167C114.696 24.6167 114.45 24.8629 114.45 25.1667C114.45 25.4704 114.696 25.7167 115 25.7167H117C117.304 25.7167 117.55 25.4704 117.55 25.1667C117.55 24.8629 117.304 24.6167 117 24.6167H115Z" fill="#EAEAEA"/>
<circle cx="24" cy="24" r="5.75" fill="#FF5E5D" stroke="#E14942" stroke-width="0.5"/>
<circle cx="44" cy="24" r="5.75" fill="#FFBC4F" stroke="#E1A325" stroke-width="0.5"/>
<circle cx="64" cy="24" r="5.75" fill="#22CB58" stroke="#3EAF3F" stroke-width="0.5"/>
<path d="M1340 32C1344.38 32 1348 28.3686 1348 24C1348 19.6235 1344.37 16 1339.99 16C1335.62 16 1332 19.6235 1332 24C1332 28.3686 1335.63 32 1340 32ZM1340 30.6667C1336.3 30.6667 1333.34 27.702 1333.34 24C1333.34 20.298 1336.29 17.3333 1339.99 17.3333C1343.69 17.3333 1346.66 20.298 1346.67 24C1346.67 27.702 1343.7 30.6667 1340 30.6667ZM1340 20.0078C1339.66 20.0078 1339.41 20.251 1339.41 20.5961V24.5176L1339.47 26.1725L1338.69 25.2314L1337.76 24.2902C1337.65 24.1882 1337.51 24.1176 1337.34 24.1176C1337.02 24.1176 1336.78 24.3686 1336.78 24.6824C1336.78 24.8471 1336.82 24.9882 1336.93 25.0902L1339.55 27.702C1339.7 27.8588 1339.84 27.9216 1340 27.9216C1340.17 27.9216 1340.31 27.851 1340.46 27.702L1343.07 25.0902C1343.18 24.9882 1343.24 24.8471 1343.24 24.6824C1343.24 24.3686 1342.99 24.1176 1342.67 24.1176C1342.49 24.1176 1342.35 24.1804 1342.25 24.2902L1341.33 25.2314L1340.53 26.1804L1340.59 24.5176V20.5961C1340.59 20.251 1340.35 20.0078 1340 20.0078Z" fill="#EAEAEA"/>
<path d="M1372 31C1372.42 31 1372.76 30.6758 1372.76 30.2767V24.7482H1378.24C1378.65 24.7482 1379 24.4074 1379 24C1379 23.5926 1378.65 23.2601 1378.24 23.2601H1372.76V17.7233C1372.76 17.3242 1372.42 17 1372 17C1371.58 17 1371.24 17.3242 1371.24 17.7233V23.2601H1365.76C1365.35 23.2601 1365 23.5926 1365 24C1365 24.4074 1365.35 24.7482 1365.76 24.7482H1371.24V30.2767C1371.24 30.6758 1371.58 31 1372 31Z" fill="#EAEAEA"/>
<path d="M1398.37 28.464H1399.67V29.6325C1399.67 31.2057 1400.45 32 1402.04 32H1409.63C1411.21 32 1412 31.2057 1412 29.6325V21.9036C1412 20.3303 1411.21 19.536 1409.63 19.536H1408.33V18.3675C1408.33 16.7943 1407.54 16 1405.97 16H1398.37C1396.79 16 1396 16.7943 1396 18.3675V26.0964C1396 27.6697 1396.79 28.464 1398.37 28.464ZM1398.39 27.2344C1397.63 27.2344 1397.22 26.822 1397.22 26.0277V18.4363C1397.22 17.642 1397.63 17.2296 1398.39 17.2296H1405.94C1406.69 17.2296 1407.12 17.642 1407.12 18.4363V19.536H1402.04C1400.45 19.536 1399.67 20.3227 1399.67 21.9036V27.2344H1398.39ZM1402.06 30.7704C1401.31 30.7704 1400.88 30.358 1400.88 29.5637V21.9723C1400.88 21.178 1401.31 20.7656 1402.06 20.7656H1409.61C1410.36 20.7656 1410.78 21.178 1410.78 21.9723V29.5637C1410.78 30.358 1410.36 30.7704 1409.61 30.7704H1402.06Z" fill="#EAEAEA"/>
<rect x="428" y="10" width="583" height="28" rx="5" fill="#25252D"/>
<path fill-rule="evenodd" clip-rule="evenodd" d="M998.018 17.1464C997.822 16.9512 997.506 16.9512 997.311 17.1464C997.115 17.3417 997.115 17.6583 997.311 17.8536L999.198 19.7405C998.08 19.5288 996.923 19.6349 995.858 20.051C994.665 20.5175 993.651 21.3495 992.959 22.428C992.268 23.5064 991.936 24.776 992.01 26.0548C992.085 27.3337 992.562 28.5561 993.373 29.5472C994.185 30.5382 995.29 31.247 996.529 31.5719C997.768 31.8969 999.078 31.8214 1000.27 31.3563C1001.46 30.8911 1002.48 30.0602 1003.17 28.9825C1003.87 27.9048 1004.2 26.6356 1004.13 25.3566C1004.11 25.081 1003.87 24.8702 1003.6 24.886C1003.32 24.9017 1003.11 25.1379 1003.13 25.4136C1003.19 26.4818 1002.91 27.5418 1002.33 28.4419C1001.75 29.342 1000.91 30.036 999.908 30.4245C998.911 30.813 997.817 30.8761 996.782 30.6047C995.747 30.3332 994.825 29.7413 994.147 28.9136C993.469 28.0858 993.071 27.0648 993.009 25.9968C992.946 24.9287 993.224 23.8683 993.801 22.9676C994.379 22.0669 995.226 21.3719 996.223 20.9824C997.219 20.5928 998.313 20.5285 999.348 20.7988C999.418 20.8169 999.488 20.8196 999.554 20.8088L997.639 22.7241C997.443 22.9194 997.443 23.236 997.639 23.4312C997.834 23.6265 998.151 23.6265 998.346 23.4312L1000.97 20.8064C1001.17 20.6112 1001.17 20.2946 1000.97 20.0993L998.018 17.1464Z" fill="#EAEAEA"/>
</svg>
