<svg width="16" height="16" viewBox="0 0 16 16" fill="none" xmlns="http://www.w3.org/2000/svg">
<path d="M8 16C12.3765 16 16 12.3686 16 8C16 3.62353 12.3686 0 7.99216 0C3.62353 0 0 3.62353 0 8C0 12.3686 3.63137 16 8 16ZM8 14.6667C4.29804 14.6667 1.34118 11.702 1.34118 8C1.34118 4.29804 4.2902 1.33333 7.99216 1.33333C11.6941 1.33333 14.6588 4.29804 14.6667 8C14.6745 11.702 11.702 14.6667 8 14.6667ZM8 4.00784C7.66274 4.00784 7.41176 4.25098 7.41176 4.59608V8.51765L7.47451 10.1725L6.6902 9.23137L5.75686 8.2902C5.64706 8.18824 5.50588 8.11765 5.34118 8.11765C5.01961 8.11765 4.77647 8.36863 4.77647 8.68235C4.77647 8.84706 4.82353 8.98824 4.92549 9.0902L7.5451 11.702C7.70196 11.8588 7.83529 11.9216 8 11.9216C8.17255 11.9216 8.31373 11.851 8.46275 11.702L11.0745 9.0902C11.1765 8.98824 11.2392 8.84706 11.2392 8.68235C11.2392 8.36863 10.9882 8.11765 10.6667 8.11765C10.4941 8.11765 10.3529 8.18039 10.251 8.2902L9.32549 9.23137L8.52549 10.1804L8.58824 8.51765V4.59608C8.58824 4.25098 8.3451 4.00784 8 4.00784Z" fill="#757575"/>
</svg>
