<svg width="16" height="16" viewBox="0 0 16 16" fill="none" xmlns="http://www.w3.org/2000/svg">
<path d="M2.37429 12.464H3.6673V13.6325C3.6673 15.2057 4.45369 16 6.04159 16H13.6333C15.206 16 16 15.2057 16 13.6325V5.90358C16 4.33031 15.206 3.53604 13.6333 3.53604H12.3327V2.36754C12.3327 0.794272 11.5388 0 9.96597 0H2.37429C0.786389 0 0 0.794272 0 2.36754V10.0964C0 11.6697 0.786389 12.464 2.37429 12.464ZM2.38941 11.2344C1.63327 11.2344 1.21739 10.822 1.21739 10.0277V2.43628C1.21739 1.642 1.63327 1.22959 2.38941 1.22959H9.94329C10.6919 1.22959 11.1153 1.642 11.1153 2.43628V3.53604H6.04159C4.45369 3.53604 3.6673 4.32267 3.6673 5.90358V11.2344H2.38941ZM6.05671 14.7704C5.30813 14.7704 4.88469 14.358 4.88469 13.5637V5.97231C4.88469 5.17804 5.30813 4.76563 6.05671 4.76563H13.6106C14.3592 4.76563 14.7826 5.17804 14.7826 5.97231V13.5637C14.7826 14.358 14.3592 14.7704 13.6106 14.7704H6.05671Z" fill="#757575"/>
</svg>
