<svg width="13" height="15" viewBox="0 0 13 15" fill="none" xmlns="http://www.w3.org/2000/svg">
<path fill-rule="evenodd" clip-rule="evenodd" d="M6.01775 0.146447C5.82249 -0.0488156 5.5059 -0.0488154 5.31064 0.146447C5.11538 0.341709 5.11538 0.658291 5.31064 0.853553L7.19757 2.74048C6.08021 2.52877 4.92277 2.63489 3.85844 3.05101C2.6654 3.51747 1.65058 4.34951 0.959327 5.42798C0.268074 6.50644 -0.0641478 7.77601 0.0102446 9.05483C0.084637 10.3337 0.561827 11.5561 1.37347 12.5472C2.18511 13.5382 3.28956 14.247 4.52864 14.5719C5.76772 14.8969 7.07786 14.8214 8.27141 14.3563C9.46496 13.8911 10.4807 13.0602 11.1731 11.9825C11.8655 10.9048 12.1992 9.63555 12.1262 8.35665C12.1104 8.08095 11.8742 7.87022 11.5985 7.88595C11.3228 7.90169 11.112 8.13794 11.1278 8.41363C11.1888 9.48178 10.9101 10.5418 10.3318 11.4419C9.75349 12.342 8.90515 13.036 7.90829 13.4245C6.91144 13.813 5.81721 13.8761 4.78233 13.6047C3.74745 13.3332 2.82501 12.7413 2.14712 11.9136C1.46924 11.0858 1.07069 10.0648 1.00856 8.99675C0.946424 7.92868 1.2239 6.86834 1.80123 5.9676C2.37857 5.06687 3.22615 4.37194 4.22258 3.98236C5.21901 3.59278 6.31317 3.52853 7.34834 3.79882C7.41772 3.81693 7.48751 3.81955 7.55403 3.80882L5.63874 5.72411C5.44348 5.91937 5.44348 6.23596 5.63874 6.43122C5.834 6.62648 6.15058 6.62648 6.34585 6.43122L8.97063 3.80644C9.16589 3.61117 9.16589 3.29459 8.97063 3.09933L6.01775 0.146447Z" fill="#757575"/>
</svg>
