<svg width="14" height="16" viewBox="0 0 14 16" fill="none" xmlns="http://www.w3.org/2000/svg">
<path d="M0.5 9.35446C0.5 12.2455 2.03309 13.3069 6.47593 15.8416C6.6793 15.9525 6.87485 16 7 16C7.12515 16 7.32852 15.9525 7.52407 15.8416C11.9747 13.3149 13.5 12.2455 13.5 9.35446V3.29505C13.5 2.46337 13.148 2.20198 12.4832 1.91683C11.5602 1.52871 8.58002 0.443564 7.65704 0.118812C7.44585 0.0475248 7.21901 0 7 0C6.78099 0 6.55415 0.0633663 6.35078 0.118812C5.4278 0.388119 2.43983 1.53663 1.51685 1.91683C0.859807 2.19406 0.5 2.46337 0.5 3.29505V9.35446ZM7.16426 14.5347V1.29901C7.20337 1.30693 7.2503 1.32277 7.31288 1.34653C8.49398 1.82178 10.7858 2.66139 11.9982 3.08119C12.2094 3.1604 12.2563 3.27129 12.2563 3.54059V9.06139C12.2563 11.5089 11.0987 12.1505 7.48496 14.3762C7.36763 14.4554 7.25812 14.5109 7.16426 14.5347Z" fill="#666666"/>
</svg>
