<svg width="20" height="14" viewBox="0 0 20 14" fill="none" xmlns="http://www.w3.org/2000/svg">
<path fill-rule="evenodd" clip-rule="evenodd" d="M18 1.1H7.88331V12.9H18C18.4971 12.9 18.9 12.4971 18.9 12V2C18.9 1.50294 18.4971 1.1 18 1.1ZM2 1.1H6.78331V12.9H2C1.50294 12.9 1.1 12.4971 1.1 12V2C1.1 1.50294 1.50294 1.1 2 1.1ZM2 0C0.895431 0 0 0.89543 0 2V12C0 13.1046 0.895431 14 2 14H18C19.1046 14 20 13.1046 20 12V2C20 0.895431 19.1046 0 18 0H2ZM3 2.95C2.69624 2.95 2.45 3.19624 2.45 3.5C2.45 3.80376 2.69624 4.05 3 4.05H5C5.30376 4.05 5.55 3.80376 5.55 3.5C5.55 3.19624 5.30376 2.95 5 2.95H3ZM2.45 5.83333C2.45 5.52957 2.69624 5.28333 3 5.28333H5C5.30376 5.28333 5.55 5.52957 5.55 5.83333C5.55 6.13709 5.30376 6.38333 5 6.38333H3C2.69624 6.38333 2.45 6.13709 2.45 5.83333ZM3 7.61666C2.69624 7.61666 2.45 7.86291 2.45 8.16666C2.45 8.47042 2.69624 8.71666 3 8.71666H5C5.30376 8.71666 5.55 8.47042 5.55 8.16666C5.55 7.86291 5.30376 7.61666 5 7.61666H3Z" fill="#757575"/>
</svg>
