<?xml version="1.0" encoding="utf-8"?>
<svg viewBox="47.821 0 487.416 89.719" xmlns="http://www.w3.org/2000/svg">
  <defs/>
  <g fill="#5865f2">
    <path d="M170.85,20.2h27.3q9.87,0,16.7,3.08a22.5,22.5,0,0,1,10.21,8.58,23.34,23.34,0,0,1,3.4,12.56A23.24,23.24,0,0,1,224.93,57a23.94,23.94,0,0,1-10.79,8.92q-7.24,3.3-17.95,3.29H170.85Zm25.06,36.54q6.65,0,10.22-3.32a11.8,11.8,0,0,0,3.57-9.07,11.5,11.5,0,0,0-3.18-8.5q-3.2-3.18-9.63-3.19h-8.54V56.74Z"/>
    <path d="M269.34,69.13a37,37,0,0,1-10.22-4.27V53.24a27.77,27.77,0,0,0,9.2,4.38,39.31,39.31,0,0,0,11.17,1.71,8.71,8.71,0,0,0,3.82-.66c.86-.44,1.29-1,1.29-1.58a2.37,2.37,0,0,0-.7-1.75,6.15,6.15,0,0,0-2.73-1.19l-8.4-1.89q-7.22-1.68-10.25-4.65a10.39,10.39,0,0,1-3-7.81,10.37,10.37,0,0,1,2.66-7.07,17.13,17.13,0,0,1,7.56-4.65,36,36,0,0,1,11.48-1.65A43.27,43.27,0,0,1,292,27.69a30.25,30.25,0,0,1,8.12,3.22v11a30,30,0,0,0-7.6-3.11,34,34,0,0,0-8.85-1.16q-6.58,0-6.58,2.24a1.69,1.69,0,0,0,1,1.58,16.14,16.14,0,0,0,3.74,1.08l7,1.26Q295.65,45,299,48t3.36,8.78a11.61,11.61,0,0,1-5.57,10.12Q291.26,70.61,281,70.6A46.41,46.41,0,0,1,269.34,69.13Z"/>
    <path d="M318.9,67.66a21,21,0,0,1-9.07-8,21.59,21.59,0,0,1-3-11.34,20.62,20.62,0,0,1,3.15-11.27,21.16,21.16,0,0,1,9.24-7.8,34.25,34.25,0,0,1,14.56-2.84q10.5,0,17.43,4.41V43.65a21.84,21.84,0,0,0-5.7-2.73,22.65,22.65,0,0,0-7-1.05q-6.51,0-10.19,2.38a7.15,7.15,0,0,0-.1,12.43q3.57,2.41,10.36,2.41a23.91,23.91,0,0,0,6.9-1,25.71,25.71,0,0,0,5.84-2.49V66a34,34,0,0,1-17.85,4.62A32.93,32.93,0,0,1,318.9,67.66Z"/>
    <path d="M368.64,67.66a21.77,21.77,0,0,1-9.25-8,21.14,21.14,0,0,1-3.18-11.41A20.27,20.27,0,0,1,359.39,37a21.42,21.42,0,0,1,9.21-7.74,38.17,38.17,0,0,1,28.7,0,21.25,21.25,0,0,1,9.17,7.7,20.41,20.41,0,0,1,3.15,11.27,21.29,21.29,0,0,1-3.15,11.41,21.51,21.51,0,0,1-9.2,8,36.32,36.32,0,0,1-28.63,0Zm21.27-12.42a9.12,9.12,0,0,0,2.56-6.76,8.87,8.87,0,0,0-2.56-6.68,9.53,9.53,0,0,0-7-2.49,9.67,9.67,0,0,0-7,2.49,8.9,8.9,0,0,0-2.55,6.68,9.15,9.15,0,0,0,2.55,6.76,9.53,9.53,0,0,0,7,2.55A9.4,9.4,0,0,0,389.91,55.24Z"/>
    <path d="M451.69,29V44.14a12.47,12.47,0,0,0-6.93-1.75c-3.73,0-6.61,1.14-8.61,3.4s-3,5.77-3,10.53V69.2H416V28.25h16.8v13q1.4-7.14,4.52-10.53a10.38,10.38,0,0,1,8-3.4A11.71,11.71,0,0,1,451.69,29Z"/>
    <path d="M508.67,18.8V69.2H491.52V60a16.23,16.23,0,0,1-6.62,7.88A20.81,20.81,0,0,1,474,70.6a18.11,18.11,0,0,1-10.15-2.83A18.6,18.6,0,0,1,457.11,60a25.75,25.75,0,0,1-2.34-11.17,24.87,24.87,0,0,1,2.48-11.55,19.43,19.43,0,0,1,7.21-8,19.85,19.85,0,0,1,10.61-2.87q12.24,0,16.45,10.64V18.8ZM489,55a8.83,8.83,0,0,0,2.63-6.62A8.42,8.42,0,0,0,489,42a11,11,0,0,0-13.89,0,8.55,8.55,0,0,0-2.59,6.47A8.67,8.67,0,0,0,475.14,55,9.42,9.42,0,0,0,482,57.51,9.56,9.56,0,0,0,489,55Z"/>
    <path d="M 136.775 20.795 C 131.674 18.459 126.29 16.803 120.759 15.867 C 120.001 17.221 119.317 18.612 118.707 20.038 C 112.815 19.15 106.823 19.15 100.931 20.038 C 100.322 18.612 99.636 17.221 98.88 15.867 C 93.345 16.811 87.957 18.471 82.851 20.807 C 72.715 35.804 69.967 50.428 71.341 64.845 C 77.277 69.231 83.921 72.566 90.984 74.706 C 92.575 72.568 93.982 70.298 95.192 67.923 C 92.895 67.065 90.678 66.006 88.567 64.76 C 89.122 64.357 89.666 63.941 90.191 63.538 C 102.629 69.387 117.028 69.387 129.466 63.538 C 129.997 63.972 130.541 64.388 131.09 64.76 C 128.975 66.008 126.754 67.069 124.453 67.928 C 125.661 70.303 127.068 72.571 128.659 74.706 C 135.729 72.575 142.379 69.241 148.316 64.852 C 149.928 48.133 145.562 33.643 136.775 20.795 Z M 96.932 55.979 C 93.103 55.979 89.94 52.504 89.94 48.23 C 89.94 43.956 92.994 40.451 96.919 40.451 C 100.846 40.451 103.985 43.956 103.917 48.23 C 103.85 52.504 100.833 55.979 96.932 55.979 Z M 122.724 55.979 C 118.891 55.979 115.739 52.504 115.739 48.23 C 115.739 43.956 118.792 40.451 122.724 40.451 C 126.658 40.451 129.771 43.956 129.703 48.23 C 129.638 52.504 126.627 55.979 122.724 55.979 Z" style=""/>
    <ellipse cx="242.92" cy="24.93" rx="8.55" ry="7.68"/>
    <path d="M234.36,37.9a22.08,22.08,0,0,0,17.11,0V69.42H234.36Z"/>
  </g>
</svg>