<?xml version="1.0" encoding="utf-8" ?><svg xmlns="http://www.w3.org/2000/svg" xmlns:xlink="http://www.w3.org/1999/xlink" width="1024" height="1022" viewBox="0 0 1024 1022"><path fill="#FEFEFE" d="M63.0308 53.019L63.8629 52.9869C73.5039 52.6432 85.3923 52.9458 95.1984 52.9463L156.313 52.9476L340.527 52.9505L480.92 52.9504L525.279 52.9322C531.079 52.9279 542.542 52.6029 547.937 53.0847C639.569 61.2097 726.817 95.9839 798.916 153.117C813.147 164.448 824.618 176.04 837.822 188.366C849.431 199.203 862.621 214.709 872.49 227.295C919.09 286.787 950.339 356.829 963.483 431.248C965.766 443.995 968.753 462.17 969.03 475.087C969.485 496.264 968.945 517.966 969.089 539.195C969.229 559.805 964.908 583.274 960.833 603.591C943.419 689.346 899.228 771.752 837.481 834.017C774.785 897.239 688.69 943.29 601.231 960.124C568.265 966.469 561.79 967.994 561.901 931.074L561.987 905.378L561.929 825.885C562.039 808.289 576.319 808.268 590.232 804.583C737.174 765.66 832.602 623.111 813.531 472.208C805.274 405.888 775.3 344.164 728.286 296.665C675.989 243.8 606.308 211.677 532.145 206.245C520.521 205.366 500.913 206.005 488.739 206.011L405.728 206.027L207.015 206.026L207.066 220.75L207.102 814.974L307.988 814.945L307.95 491.416L307.946 378.323L307.947 342.259C307.947 335.647 307.901 329.046 308.083 322.433C308.39 311.244 314.194 306.924 324.933 306.924C364.036 306.923 403.149 306.97 442.256 306.949L497.338 306.93C534.993 306.936 552.194 307.291 587.869 321.478C658.465 349.553 706.716 413.4 714.746 488.799C715.469 495.593 716.995 502.258 717.084 509.091C717.109 514.502 715.659 520.118 715.378 525.54C709.896 623.187 629.588 704.449 532.591 713.435C522.847 714.338 513.236 714.044 503.518 714.046L461.016 714.026C461.395 732.853 461.062 752.982 461.063 771.908L461.067 883.555L461.103 933.669C461.114 941.496 461.412 950.498 460.673 958.221C460.427 960.798 457.378 964.774 455.211 966.113C452.806 967.599 447.275 968.032 444.321 968.036C412.832 968.082 381.296 968.018 349.811 968.013L160.997 968.024L91.7212 968.063C82.9597 968.066 71.0495 968.419 62.3434 967.58C60.1188 967.366 55.5085 962.929 54.8335 960.601C54.3359 958.885 54.0563 958.524 54.0378 956.406C53.8743 937.754 53.9443 918.954 53.9476 900.313L53.9613 789.622L53.9598 452.392L53.9606 194.316C53.9607 151.38 53.9615 108.442 53.9572 65.5071C53.9566 59.0396 57.1612 55.4608 63.0308 53.019ZM66.0942 955.985L448.404 955.957C447.541 945.327 448.098 925.857 448.09 914.343L448.057 835.321L448.027 748.355C448.018 735.054 447.403 714.937 448.257 702.009L496.417 701.858C504.145 701.86 512.596 702.195 520.211 701.787C567.503 699.252 614.094 679.825 647.6 645.849C683.905 609.203 704.169 559.638 703.939 508.054C703.832 497.327 701.179 479.503 698.907 468.83C680.568 382.712 599.427 317.46 511.125 319.125C448.294 320.311 384.406 318.991 321.074 319.844C320.837 324.757 320.227 329.133 320.114 334.121C319.649 354.585 320.525 375.139 320.537 395.547L320.561 519.101L320.871 714.948C320.912 751.922 320.433 790.163 321.035 827.025L194.925 827.459L194.957 203.392L195.014 193.915L402.365 193.952L495.743 193.941C499.853 193.941 503.792 194.013 507.907 193.81C513.012 193.558 518.98 192.639 524.011 192.912C603.879 196.759 679.476 230.112 736.16 286.509C780.274 330.666 810.309 386.909 822.468 448.131C828.676 479.109 829.982 516.131 826.475 547.568C818.185 618.557 786.105 684.648 735.46 735.078C701.192 769.126 659.684 795.002 614.028 810.781C601.592 815.017 588.04 818.482 575.266 821.515C574.153 830.084 574.474 839.361 574.498 848.054L574.535 882.611L574.51 920.62C574.502 929.933 574.014 942.137 575.795 951.037C588.987 950.639 600.425 947.223 613.166 944.419C677.287 930.309 736.7 900.541 788.328 860.215C805.436 846.852 818.088 836.185 832.925 820.436C904.088 745.949 947.715 649.416 956.6 546.784C958.085 528.655 956.446 508.506 956.974 490.165C957.411 474.972 954.672 456.478 952.285 441.299C940.055 363.834 907.675 290.946 858.39 229.943C851.047 220.843 838.122 205.401 829.585 197.827C817.703 187.285 807.131 175.945 794.951 166.077C727.136 110.44 644.305 76.2297 556.993 67.7964C553.493 67.4544 549.705 65.34 546.249 65.1897C539.539 64.8978 532.588 64.9911 525.87 64.9965L488.529 65.0265L368.225 65.0283L66.0123 65.0246L66.0942 955.985Z"/><path fill="#FEFEFE" d="M448.917 447.478C472.604 447.954 496.577 446.649 520.097 448.43C534.127 449.493 547.913 457.598 557.53 467.744C568.966 479.67 575.092 495.716 574.513 512.229C574.021 529.303 566.953 544.161 554.66 555.865C530.494 577.809 501.739 573.139 471.723 573.75C464.653 573.895 455.171 574.282 448.353 573.474C447.907 568.52 448.515 558.455 448.453 552.884C448.033 528.157 447.912 503.426 448.091 478.697C448.098 472.508 447.702 451.998 448.917 447.478ZM461.101 560.981L490.714 560.98C512.097 561.022 530.377 561.493 546.857 545.697C556.908 535.181 562.301 523.702 561.889 508.869C561.428 495.478 555.619 482.829 545.762 473.754C529.804 458.917 512.335 459.98 491.853 459.994L461.013 460.029L461.101 560.981Z"/></svg>