<?xml version="1.0" encoding="utf-8" ?><svg xmlns="http://www.w3.org/2000/svg" xmlns:xlink="http://www.w3.org/1999/xlink" width="1024" height="1022" viewBox="0 0 1024 1022"><path d="M64.8129 53.0987C75.724 52.4807 91.9522 52.9822 103.168 52.986L175.34 52.9899L458.243 53.0096C470.938 53.0134 547.068 52.0057 551.223 53.6536C558.771 56.6477 568.141 56.2072 576.224 57.4389C591.087 59.7037 606.107 62.3727 620.672 66.1159C637.473 70.4341 654.487 74.9865 670.775 80.9871C720.457 99.2898 771.58 129.866 811.848 164.305C818.129 169.677 823.757 175.64 829.709 181.356C833.521 185.017 837.61 188.386 841.407 192.06C854.914 205.129 867.334 220.66 878.495 235.742C921.812 293.741 950.815 361.154 963.14 432.487C966.38 450.541 969.585 472.975 969.023 491.234C968.445 510.007 970.171 530.698 968.652 549.221C958.743 657.364 911.625 758.721 835.334 836.004C824.477 847.066 810.544 858.379 798.42 867.948C745.116 910.02 682.765 941.765 616.198 956.174C603.531 958.807 590.069 962.88 577.135 963.469C559.702 964.263 561.99 938.768 562.023 927.468L562.103 900.099C562.139 875.63 561.981 851.162 562.108 826.695C562.159 816.793 565.357 811.179 575.657 808.923C733.433 774.36 837.954 622.911 812.701 462.505C790.71 322.816 673.528 215.967 532.227 205.982C520.906 205.226 508.65 205.961 497.167 205.975L426.388 205.996L279.754 205.994C256.337 205.995 229.794 206.655 206.701 206.004C207.173 210.846 206.975 217.745 206.974 222.75L206.974 609.674C206.976 677.809 206.367 747.068 207.109 815.107C239.542 814.312 275.666 814.997 308.297 815.069C307.645 775.958 308.136 735.743 308.128 696.513L308.08 478.397L308.056 373.227L308.042 341.581C308.045 334.904 307.872 327.433 308.604 320.838C309.167 315.758 309.541 313.19 313.901 310.067C316.594 308.138 318.795 307.328 322.163 307.221C333.631 306.855 345.429 307.025 356.919 307.035L424.47 307.064L489.904 307.032C521.494 307.019 538.825 306.43 569.464 315.499C649.068 339.063 705.808 406.739 714.402 489.395C714.96 494.76 716.669 503.354 716.421 508.691C715.879 520.337 714.315 532.414 713.088 544.036C705.169 593.964 674.455 645.106 633.325 674.51C601.092 697.613 563.036 711.231 523.464 713.825C520.173 714.036 516.731 714.038 513.424 714.009C496.11 713.859 478.721 714.317 461.436 713.811C461.125 713.748 460.814 713.686 460.504 713.623C461.276 725.333 460.911 739.899 460.914 751.771L460.913 816.372L460.937 904.185C460.943 919.591 461.333 935.115 460.859 950.51C460.769 953.431 460.93 957.143 459.773 959.849C458.264 963.379 456.399 965.339 452.748 966.659C445.01 969.457 395.029 968.066 383.694 968.065L274.761 968.059L136.829 968.055C114.589 968.056 92.2389 968.578 70.0124 968.1C66.8547 968.033 63.8294 968.036 60.9179 966.622C57.7565 965.086 55.5788 962.026 54.6202 958.694C53.0088 953.092 54.0127 919.041 54.0127 911.432L54.0123 785.578L54.009 210.521L53.9892 113.528L53.9865 82.3828C53.9884 71.0338 50.9087 56.4547 64.8129 53.0987ZM66.0439 955.915L331.08 955.993L409.918 955.988C421.819 955.986 437.586 955.494 449.081 956.027L449.064 702.2C473.849 701.618 500.093 703 524.582 701.895C563.675 700.13 605.143 683.073 635.131 658.17C640.99 653.289 647.908 646.219 652.969 640.728C681.466 609.809 700.591 569.009 703.215 526.811C703.634 520.071 704.737 513.898 704.52 506.942C702.626 454.052 679.702 404.104 640.836 368.181C614.483 343.904 573.026 324.57 537.29 320.066C525.945 318.636 509.938 318.918 498.299 318.918L445.722 318.927L320.082 318.876C319.33 336.245 319.799 355.666 319.884 373.188L319.881 447.112L319.645 692.179L319.662 777.57C319.667 794.132 319.928 811.503 319.491 827.98C309.408 826.429 289.787 827.244 279.105 827.063C251.388 826.593 222.674 827.754 195.016 826.998L195.002 200.515L195.027 194.065L399.257 193.995L490.251 193.995C497.328 193.995 504.422 194.022 511.496 193.898C517.192 193.799 522.81 193.334 528.509 193.719C606.557 198.619 680.159 231.74 735.588 286.905C794.883 346.222 828.147 426.688 828.046 510.559C827.922 594.462 794.716 674.932 735.634 734.505C703.113 767.079 661.618 792.923 618.321 808.632C602.966 814.202 589.115 816.876 574.149 821.602C573.516 828.165 573.858 836.538 573.863 843.312L573.87 881.307L573.88 920.819C573.886 931.54 573.464 941.112 574.922 951.806C588.44 951.369 602.205 947.367 615.245 944.509C679.662 930.392 740.388 899.114 791.855 858.205C800.927 850.994 817.833 837.149 825.692 828.857C844.149 809.383 862.225 788.484 877.658 766.505C921.614 703.364 948.753 630.062 956.513 553.52C958.43 532.804 956.177 509.586 957.07 488.583C957.786 471.753 954.444 450.222 951.484 433.552C938.153 357.767 905.511 286.697 856.708 227.204C847.989 216.632 838.77 205.916 828.767 196.537C815.831 184.408 804.041 172.583 790.075 161.581C723.221 108.335 642.388 75.5712 557.327 67.242C554.155 66.9353 550.099 65.4446 547.372 65.3615C532 64.893 516.267 65.0643 500.888 65.0636L412.197 65.0632L167.916 65.0723L98.0716 65.0865C90.9813 65.0936 72.3784 65.6835 66.0549 65.1166L66.0439 955.915Z"/><path d="M449.133 448.095C462.231 448.319 476.189 448.134 489.297 448.076C514.177 447.967 535.55 446.984 554.913 465.688C566.673 476.966 573.446 492.47 573.73 508.761C574.039 526.75 567.816 542.037 555.299 555.036C533.997 574.162 512.075 572.977 485.67 572.985C473.441 573.058 461.211 573.002 448.982 572.818C449.901 532.04 448.855 489.154 449.133 448.095ZM460.705 561.345C491.9 558.743 521.317 568.884 546.835 546.375C557.809 534.2 562.993 524.205 562.035 507.275C561.212 493.916 555.082 481.439 545.01 472.624C522.734 452.817 488.408 461.982 460.647 459.842C461.887 488.304 460.198 517.688 460.95 546.212C461.076 550.992 461.071 556.583 460.705 561.345Z"/></svg>